<?xml version="1.0" encoding="UTF-8" standalone="no"?>
<!-- Created with Inkscape (http://www.inkscape.org/) -->

<svg
   width="36mm"
   height="44mm"
   viewBox="0 0 36 44"
   version="1.1"
   id="svg1"
   inkscape:version="1.3.2 (091e20e, 2023-11-25)"
   sodipodi:docname="描画-3.svg"
   xmlns:inkscape="http://www.inkscape.org/namespaces/inkscape"
   xmlns:sodipodi="http://sodipodi.sourceforge.net/DTD/sodipodi-0.dtd"
   xmlns="http://www.w3.org/2000/svg"
   xmlns:svg="http://www.w3.org/2000/svg"
   xmlns:rdf="http://www.w3.org/1999/02/22-rdf-syntax-ns#"
   xmlns:cc="http://creativecommons.org/ns#"
   xmlns:dc="http://purl.org/dc/elements/1.1/">
  <defs
     id="defs1" />
  <sodipodi:namedview
     id="base"
     pagecolor="#ffffff"
     bordercolor="#000000"
     borderopacity="0.3"
     inkscape:pageopacity="0.0"
     inkscape:pageshadow="2"
     inkscape:zoom="1.9151901"
     inkscape:cx="117.48181"
     inkscape:cy="73.883006"
     inkscape:document-units="mm"
     inkscape:showpageshadow="2"
     inkscape:pagecheckerboard="0"
     inkscape:deskcolor="#d1d1d1"
     inkscape:window-width="1440"
     inkscape:window-height="900"
     inkscape:window-x="0"
     inkscape:window-y="0"
     inkscape:window-maximized="0"
     inkscape:current-layer="svg1" />
  <metadata
     id="metadata1">
    <rdf:RDF>
      <cc:Work
         rdf:about="">
        <dc:format>image/svg+xml</dc:format>
        <dc:type
           rdf:resource="http://purl.org/dc/dcmitype/StillImage" />
      </cc:Work>
    </rdf:RDF>
  </metadata>
  <path
     style="color:#000000;-inkscape-font-specification:Arial;fill:#d92b44;stroke-linejoin:round;-inkscape-stroke:none;paint-order:stroke markers fill"
     d="M 1.8123965,3.1715762 A 0.13578163,0.12715906 0 0 0 1.6771732,3.2982123 V 41.827759 a 0.13578163,0.12715906 0 0 0 0.1352233,0.126637 H 7.2576593 A 0.13578163,0.12715906 0 0 0 7.3928827,41.827759 V 23.794382 H 28.505889 v 18.033377 a 0.13578163,0.12715906 0 0 0 0.135224,0.126637 h 5.445263 a 0.13578163,0.12715906 0 0 0 0.135223,-0.126637 V 3.2982123 A 0.13578163,0.12715906 0 0 0 34.086376,3.1715762 H 28.641113 A 0.13578163,0.12715906 0 0 0 28.505889,3.2982123 V 18.993545 H 7.3928827 V 3.2982123 A 0.13578163,0.12715906 0 0 0 7.2576593,3.1715762 Z M 1.9476199,3.4267387 H 7.1204177 V 19.120181 a 0.13578163,0.12715906 0 0 0 0.1372416,0.126637 H 28.641113 a 0.13578163,0.12715906 0 0 0 0.135223,-0.126637 V 3.4267387 h 5.174817 V 41.701123 H 28.776336 V 23.667745 A 0.13578163,0.12715906 0 0 0 28.641113,23.539219 H 7.2576593 A 0.13578163,0.12715906 0 0 0 7.1204177,23.667745 V 41.701123 H 1.9476199 Z"
     id="path10" />
  <path
     style="color:#000000;-inkscape-font-specification:Arial;fill:#d92b44;stroke-linejoin:round;-inkscape-stroke:none;paint-order:stroke markers fill"
     d="M 1.8122976,41.828033 V 3.2987191 h 5.444434 V 19.120443 H 28.64157 V 3.2987191 h 5.444434 V 41.828033 H 28.64157 V 23.667217 H 7.2567316 v 18.160816 z"
     id="path11" />
</svg>
