<?xml version="1.0" encoding="UTF-8" standalone="no"?>
<!-- Created with Inkscape (http://www.inkscape.org/) -->

<svg
   width="36mm"
   height="44mm"
   viewBox="0 0 36 44"
   version="1.1"
   id="svg1"
   inkscape:version="1.3.2 (091e20e, 2023-11-25)"
   sodipodi:docname="描画-2.svg"
   xmlns:inkscape="http://www.inkscape.org/namespaces/inkscape"
   xmlns:sodipodi="http://sodipodi.sourceforge.net/DTD/sodipodi-0.dtd"
   xmlns="http://www.w3.org/2000/svg"
   xmlns:svg="http://www.w3.org/2000/svg"
   xmlns:rdf="http://www.w3.org/1999/02/22-rdf-syntax-ns#"
   xmlns:cc="http://creativecommons.org/ns#"
   xmlns:dc="http://purl.org/dc/elements/1.1/">
  <defs
     id="defs1" />
  <sodipodi:namedview
     id="base"
     pagecolor="#ffffff"
     bordercolor="#000000"
     borderopacity="0.3"
     inkscape:pageopacity="0.0"
     inkscape:pageshadow="2"
     inkscape:zoom="1.9151901"
     inkscape:cx="117.48181"
     inkscape:cy="73.883006"
     inkscape:document-units="mm"
     inkscape:showpageshadow="2"
     inkscape:pagecheckerboard="0"
     inkscape:deskcolor="#d1d1d1"
     inkscape:window-width="1440"
     inkscape:window-height="900"
     inkscape:window-x="0"
     inkscape:window-y="0"
     inkscape:window-maximized="0"
     inkscape:current-layer="svg1" />
  <metadata
     id="metadata1">
    <rdf:RDF>
      <cc:Work
         rdf:about="">
        <dc:format>image/svg+xml</dc:format>
        <dc:type
           rdf:resource="http://purl.org/dc/dcmitype/StillImage" />
      </cc:Work>
    </rdf:RDF>
  </metadata>
  <path
     style="color:#000000;-inkscape-font-specification:Arial;fill:#d92b44;stroke-linejoin:round;-inkscape-stroke:none;paint-order:stroke markers fill"
     d="m 17.74635,0.85751612 c -2.889997,0 -5.522736,0.46512468 -7.8912703,1.39679848 C 7.4835385,3.187171 5.6719523,4.5646101 4.4320833,6.3818255 3.1949685,8.1763121 2.5743719,10.116551 2.5743719,12.193879 c 0,1.889668 0.5032762,3.610173 1.5073887,5.147002 1.02529,1.520295 2.5704675,2.793738 4.6262623,3.818806 1.5962731,0.806658 4.3478471,1.654148 8.2756241,2.561114 a 0.14093778,0.13416119 0 0 0 0.002,0.002 c 3.92087,0.886894 6.457018,1.544927 7.582986,1.962759 a 0.14093778,0.13416119 0 0 0 0.002,0 c 1.771286,0.641457 3.029214,1.435243 3.783486,2.36865 a 0.14093778,0.13416119 0 0 0 0,0.002 c 0.757745,0.919671 1.135046,1.993704 1.135046,3.243317 0,1.229431 -0.394815,2.364706 -1.195101,3.416725 a 0.14093778,0.13416119 0 0 0 -0.002,0 c -0.776782,1.027991 -1.973035,1.845444 -3.605323,2.448685 -1.631387,0.602908 -3.517584,0.905156 -5.659214,0.905156 -2.411312,0 -4.575585,-0.394581 -6.497987,-1.181466 v 0.002 C 10.606254,36.084785 9.1937992,35.044637 8.2796282,33.776607 l -0.002,-0.002 C 7.3808852,32.484331 6.8044568,30.833396 6.5540383,28.816352 A 0.14093778,0.13416119 0 0 0 6.4018981,28.698206 l -5.3309114,0.444003 a 0.14093778,0.13416119 0 0 0 -0.12811801,0.137203 c 0.0783116,2.739571 0.86219291,5.206396 2.35216711,7.389882 a 0.14093778,0.13416119 0 0 0 0.002,0.002 c 1.5101686,2.16567 3.5830697,3.791178 6.2077192,4.872597 2.6447433,1.081626 5.9067893,1.619753 9.7850143,1.619753 3.06596,0 5.825886,-0.530575 8.273623,-1.593074 2.467056,-1.081025 4.364685,-2.585807 5.681235,-4.512441 1.314155,-1.9418 1.973818,-4.012322 1.973818,-6.200794 0,-2.20354 -0.600013,-4.156748 -1.799657,-5.842543 l -0.0021,-0.002 C 32.214594,23.306632 30.355624,21.904949 27.853662,20.807152 26.122682,20.058174 22.965144,19.199916 18.358914,18.219359 13.782888,17.222647 10.950088,16.235502 9.9171369,15.34001 a 0.14093778,0.13416119 0 0 0 0,-0.002 C 8.8371566,14.418223 8.3036503,13.26181 8.3036503,11.833676 c 0,-1.642917 0.7479573,-3.0285695 2.2760977,-4.1923005 C 12.11389,6.4694669 14.578032,5.86727 17.978564,5.86727 c 3.262206,0 5.70361,0.6529442 7.338761,1.9379864 a 0.14093778,0.13416119 0 0 0 0,0.0019 c 1.657693,1.2877825 2.632239,3.1875451 2.920691,5.7320191 a 0.14093778,0.13416119 0 0 0 0.150139,0.120101 l 5.418992,-0.38874 a 0.14093778,0.13416119 0 0 0 0.13012,-0.139109 C 33.83928,10.724927 33.132522,8.5641209 31.817314,6.6581362 30.500445,4.7497463 28.610683,3.3081105 26.162104,2.3381606 h -0.0021 C 23.731922,1.3505158 20.926301,0.85751612 17.74635,0.85751612 Z m 0,0.26868838 c 3.150149,0 5.916119,0.4882724 8.303651,1.459683 a 0.14093778,0.13416119 0 0 0 0.002,0 c 2.405545,0.9525909 4.244014,2.3566576 5.529093,4.2189793 1.262571,1.8297028 1.93532,3.9018262 2.051891,6.2103222 l -5.150794,0.369685 C 28.167814,10.860007 27.185234,8.9121803 25.495489,7.5994984 23.790464,6.2602089 21.279404,5.6005331 17.978564,5.6005331 c -3.435229,0 -5.963119,0.5999982 -7.574979,1.8312732 -1.5790233,1.2024806 -2.3821947,2.6803777 -2.3821947,4.4019157 0,1.492661 0.5736995,2.738731 1.7075732,3.70447 1.1426575,0.989802 3.9789995,1.942718 8.5678935,2.942233 a 0.14093778,0.13416119 0 0 0 0,0.002 c 4.597841,0.978771 7.751553,1.838925 9.438696,2.568738 2.468446,1.083091 4.281955,2.454947 5.44902,4.112266 1.168559,1.641203 1.751614,3.535671 1.751614,5.693907 0,2.137258 -0.639681,4.15077 -1.927776,6.054063 -1.2857,1.881489 -3.136399,3.351903 -5.563125,4.415256 -2.407207,1.044907 -5.123664,1.568302 -8.155514,1.568302 -3.850843,0 -7.074317,-0.534134 -9.6729118,-1.596886 C 7.0370106,40.235016 5.0117297,38.645652 3.5312534,36.522564 2.0930218,34.414904 1.3429251,32.03851 1.2451471,29.395652 L 6.301806,28.974517 c 0.2632826,1.987383 0.8364795,3.646274 1.7436064,4.950726 a 0.14093778,0.13416119 0 0 0 0,0.002 c 0.950174,1.319045 2.4124426,2.38635 4.3720276,3.207111 a 0.14093778,0.13416119 0 0 0 0,0.002 c 1.961553,0.802912 4.16646,1.202429 6.61009,1.202429 2.16956,0 4.091335,-0.307043 5.761309,-0.924213 1.669072,-0.616836 2.9178,-1.462642 3.733439,-2.542059 0.830975,-1.09236 1.249151,-2.288314 1.249151,-3.572983 0,-1.301458 -0.399264,-2.4432 -1.195101,-3.409104 -0.799309,-0.989139 -2.103645,-1.803742 -3.905599,-2.456307 v 0.002 c -1.16528,-0.43242 -3.695943,-1.08676 -7.619019,-1.974193 h -0.0021 C 13.13328,22.5572 10.389533,21.704454 8.8401446,20.921487 6.8183225,19.913359 5.3143526,18.67189 4.31998,17.197962 v -0.0019 C 3.3439334,15.701566 2.8566319,14.037768 2.8566319,12.193879 2.8566319,10.16731 3.4585247,8.2833869 4.668301,6.528556 5.8753235,4.759482 7.6351356,3.4177879 9.9631792,2.5020414 12.294229,1.5851125 14.888093,1.1262045 17.74635,1.1262045 Z"
     id="path9" />
  <path
     style="color:#000000;-inkscape-font-specification:Arial;fill:#d92b44;stroke-linejoin:round;-inkscape-stroke:none;paint-order:stroke markers fill"
     d="m 1.083587,29.275822 5.3307328,-0.443665 q 0.378686,3.050198 1.7477814,5.018962 1.398225,1.941035 4.3111938,3.161114 2.912969,1.19235 6.55418,1.19235 3.233395,0 5.709418,-0.915059 2.476024,-0.915059 3.670341,-2.495616 1.223447,-1.608287 1.223447,-3.493864 0,-1.913305 -1.165188,-3.327488 -1.165187,-1.441911 -3.845118,-2.412428 -1.718652,-0.63777 -7.602849,-1.968765 -5.884197,-1.358724 -8.2437014,-2.551074 -3.0586172,-1.525099 -4.573361,-3.771153 -1.485614,-2.273784 -1.485614,-5.074421 0,-3.0779262 1.8351703,-5.7399169 1.8351703,-2.6897197 5.3598625,-4.0761732 3.5246916,-1.38645352 7.8358866,-1.38645352 4.748138,0 8.360219,1.46964072 3.641211,1.4419117 5.592901,4.2702767 1.951689,2.8283651 2.097337,6.4054152 l -5.418122,0.388207 q -0.436945,-3.8543408 -2.971228,-5.8231047 -2.505153,-1.968764 -7.42807,-1.968764 -5.126825,0 -7.48633,1.8023896 -2.3303748,1.7746605 -2.3303748,4.2980051 0,2.190597 1.6603921,3.60478 1.6312627,1.414182 8.5058687,2.911552 6.903736,1.469641 9.467149,2.578804 3.728599,1.636014 5.50551,4.15936 1.776912,2.495616 1.776912,5.767646 0,3.244302 -1.951689,6.128125 -1.95169,2.856094 -5.62203,4.46438 -3.641211,1.580557 -8.214573,1.580557 -5.796807,0 -9.7293148,-1.608286 Q 5.656948,39.812869 3.4139621,36.596297 1.2001058,33.351996 1.083587,29.275822 Z"
     id="path10" />
</svg>
