<?xml version="1.0" encoding="UTF-8" standalone="no"?>
<!-- Created with Inkscape (http://www.inkscape.org/) -->

<svg
   width="36mm"
   height="44mm"
   viewBox="0 0 36 44"
   version="1.1"
   id="svg1"
   inkscape:version="1.3.2 (091e20e, 2023-11-25)"
   sodipodi:docname="描画-4.svg"
   xmlns:inkscape="http://www.inkscape.org/namespaces/inkscape"
   xmlns:sodipodi="http://sodipodi.sourceforge.net/DTD/sodipodi-0.dtd"
   xmlns="http://www.w3.org/2000/svg"
   xmlns:svg="http://www.w3.org/2000/svg"
   xmlns:rdf="http://www.w3.org/1999/02/22-rdf-syntax-ns#"
   xmlns:cc="http://creativecommons.org/ns#"
   xmlns:dc="http://purl.org/dc/elements/1.1/">
  <defs
     id="defs1" />
  <sodipodi:namedview
     id="base"
     pagecolor="#ffffff"
     bordercolor="#000000"
     borderopacity="0.3"
     inkscape:pageopacity="0.0"
     inkscape:pageshadow="2"
     inkscape:zoom="1.9151901"
     inkscape:cx="117.48181"
     inkscape:cy="73.883006"
     inkscape:document-units="mm"
     inkscape:showpageshadow="2"
     inkscape:pagecheckerboard="0"
     inkscape:deskcolor="#d1d1d1"
     inkscape:window-width="1440"
     inkscape:window-height="900"
     inkscape:window-x="0"
     inkscape:window-y="0"
     inkscape:window-maximized="0"
     inkscape:current-layer="svg1" />
  <metadata
     id="metadata1">
    <rdf:RDF>
      <cc:Work
         rdf:about="">
        <dc:format>image/svg+xml</dc:format>
        <dc:type
           rdf:resource="http://purl.org/dc/dcmitype/StillImage" />
      </cc:Work>
    </rdf:RDF>
  </metadata>
  <path
     style="color:#000000;-inkscape-font-specification:Arial;fill:#d92b44;stroke-linejoin:round;-inkscape-stroke:none;paint-order:stroke markers fill"
     d="m 17.91831,3.4572931 c -5.025866,0 -9.1451012,1.7036638 -12.3274555,5.1034362 -3.1849683,3.3861277 -4.77329641,8.0790157 -4.77329641,14.0550747 0,3.165915 0.68260801,6.170601 2.04486621,9.008606 1.3639108,2.841448 3.3711427,5.087292 6.0180819,6.729936 2.6477588,1.643152 5.6551248,2.465286 9.0125588,2.465285 3.098914,0 5.990976,-0.740255 8.668834,-2.217775 2.681253,-1.49583 4.757065,-3.694435 6.218102,-6.584572 1.460683,-2.889434 2.190512,-6.16382 2.190512,-9.817926 0,-3.60397 -0.698104,-6.828676 -2.093415,-9.668635 v -0.002 C 31.497014,9.6717055 29.479042,7.441462 26.831829,5.8479327 24.184545,4.2543608 21.211025,3.4572931 17.91831,3.4572931 Z m 0,0.2376889 c 3.255432,0 6.184474,0.785764 8.79506,2.3572453 2.610191,1.5712424 4.592267,3.76287 5.953999,6.5826077 1.378242,2.804532 2.068169,5.990713 2.068169,9.564523 0,3.622253 -0.722831,6.858508 -2.165267,9.711851 -1.442082,2.85264 -3.479873,5.008977 -6.121005,6.482424 -2.644069,1.458533 -5.494677,2.188309 -8.556201,2.188309 -3.31974,0 -6.280104,-0.810137 -8.8902163,-2.429926 C 6.3919174,36.531717 4.4178209,34.323739 3.0721542,31.520299 1.7248347,28.713415 1.0525333,25.747368 1.0525332,22.615804 c 0,-5.933676 1.571833,-10.556499 4.7092123,-13.892032 C 8.9017384,5.3692552 12.944545,3.694982 17.91831,3.694982 Z m 0.0233,3.8501673 c -3.34935,0 -6.246197,1.1728798 -8.6688342,3.5083667 -2.420124,2.332287 -3.6158983,6.217157 -3.6158983,11.63497 0,4.344544 1.1532111,7.789854 3.4663687,10.310984 2.3264248,2.501403 5.2513178,3.757842 8.7465118,3.757842 3.559562,0 6.500572,-1.271969 8.795061,-3.806951 2.314458,-2.539035 3.466368,-6.137712 3.466368,-10.774576 0,-2.933781 -0.493456,-5.496469 -1.485586,-7.68462 C 27.669542,12.286116 26.225645,10.577363 24.318954,9.3739789 22.429415,8.1546614 20.300147,7.5451493 17.941613,7.5451493 Z m 0,0.2357246 c 2.318714,0 4.398858,0.5982115 6.251115,1.7934709 a 0.11705029,0.11840213 0 0 0 0.002,0 c 1.867364,1.1785642 3.27797,2.8477462 4.23732,5.0150392 0.97554,2.151563 1.464225,4.679517 1.464225,7.586401 0,4.597261 -1.138207,8.127602 -3.404226,10.613497 -2.25373,2.48995 -5.117534,3.730341 -8.622228,3.730341 -3.440032,0 -6.289313,-1.222962 -8.5756211,-3.681231 -2.2673187,-2.471171 -3.4042265,-5.847654 -3.4042265,-10.149906 0,-5.382523 1.1901529,-9.195609 3.5440464,-11.46407 C 11.817598,8.9265268 14.646047,7.7808739 17.941613,7.7808739 Z"
     id="path11" />
  <path
     style="color:#000000;-inkscape-font-specification:Arial;fill:#d92b44;stroke-linejoin:round;-inkscape-stroke:none;paint-order:stroke markers fill"
     d="m 0.93461831,22.615807 q 0,-8.932311 4.74176539,-13.9735608 4.7417653,-5.065722 12.2414963,-5.065722 4.911115,0 8.854521,2.3737924 3.943407,2.3737924 5.999785,6.6319354 2.08057,4.233671 2.08057,9.617531 0,5.457275 -2.177341,9.764362 -2.177341,4.307087 -6.169133,6.534047 -3.991792,2.202488 -8.612595,2.202488 -5.007884,0 -8.9512914,-2.447209 Q 4.9989887,35.806262 2.9668035,31.572591 0.93461831,27.33892 0.93461831,22.615807 Z m 4.83853609,0.07342 q 0,6.485103 3.4353607,10.229332 3.4595539,3.719758 8.6609799,3.719758 5.298196,0 8.709365,-3.768702 3.435361,-3.768701 3.435361,-10.694302 0,-4.380503 -1.475754,-7.635291 -1.451561,-3.27926 -4.282104,-5.0657219 -2.806351,-1.8109344 -6.31429,-1.8109344 -4.983692,0 -8.5884019,3.4750363 -3.5805167,3.450564 -3.5805167,11.550825 z"
     id="path12" />
</svg>
