<?xml version="1.0" encoding="UTF-8" standalone="no"?>
<!-- Created with Inkscape (http://www.inkscape.org/) -->

<svg
   width="210mm"
   height="297mm"
   viewBox="0 0 210 297"
   version="1.1"
   id="svg1"
   inkscape:version="1.3.2 (091e20e, 2023-11-25)"
   sodipodi:docname="描画.svg"
   xmlns:inkscape="http://www.inkscape.org/namespaces/inkscape"
   xmlns:sodipodi="http://sodipodi.sourceforge.net/DTD/sodipodi-0.dtd"
   xmlns="http://www.w3.org/2000/svg"
   xmlns:svg="http://www.w3.org/2000/svg">
  <sodipodi:namedview
     id="namedview1"
     pagecolor="#ffffff"
     bordercolor="#000000"
     borderopacity="0.25"
     inkscape:showpageshadow="2"
     inkscape:pageopacity="0.0"
     inkscape:pagecheckerboard="0"
     inkscape:deskcolor="#d1d1d1"
     inkscape:document-units="mm"
     inkscape:zoom="0.53494984"
     inkscape:cx="386.95217"
     inkscape:cy="425.27352"
     inkscape:window-width="1440"
     inkscape:window-height="900"
     inkscape:window-x="0"
     inkscape:window-y="0"
     inkscape:window-maximized="0"
     inkscape:current-layer="layer1" />
  <defs
     id="defs1" />
  <g
     inkscape:label="Layer 1"
     inkscape:groupmode="layer"
     id="layer1">
    <g
       id="g7">
      <path
         style="color:#000000;font-weight:bold;font-size:14.1111px;font-family:Arial;-inkscape-font-specification:'Arial Bold';text-align:center;letter-spacing:1.72244px;word-spacing:0.894292px;text-anchor:middle;fill:#d92b44;stroke:none;stroke-width:0.2;stroke-linejoin:miter;-inkscape-stroke:none;paint-order:stroke markers fill"
         d="m 21.380859,64.810547 a 0.10001,0.10001 0 0 0 -0.08984,0.144531 l 4.890625,9.777344 a 0.10001,0.10001 0 0 0 0.179687,0 l 4.892578,-9.777344 a 0.10001,0.10001 0 0 0 -0.08984,-0.144531 z m 0.160157,0.199219 h 9.460937 l -4.730469,9.453125 z"
         id="path4" />
      <path
         style="color:#000000;font-weight:bold;font-size:14.1111px;font-family:Arial;-inkscape-font-specification:'Arial Bold';text-align:center;letter-spacing:1.72244px;word-spacing:0.894292px;text-anchor:middle;fill:#d92b44;stroke:none;stroke-width:0.2;stroke-linejoin:miter;-inkscape-stroke:none;paint-order:stroke markers fill"
         d="m 55.398437,50.089844 a 0.10001,0.10001 0 0 0 -0.09961,0.09961 v 36.365234 a 0.10001,0.10001 0 0 0 0.09961,0.09961 h 27.65625 a 0.10001,0.10001 0 0 0 0.09961,-0.09961 v -6.126953 a 0.10001,0.10001 0 0 0 -0.09961,-0.09961 H 62.839844 v -9.697266 h 18.15625 a 0.10001,0.10001 0 0 0 0.09961,-0.101562 v -6.125 a 0.10001,0.10001 0 0 0 -0.09961,-0.101563 h -18.15625 v -7.861328 h 19.521484 a 0.10001,0.10001 0 0 0 0.09961,-0.09961 v -6.152344 a 0.10001,0.10001 0 0 0 -0.09961,-0.09961 z m 0.09961,0.201172 h 26.761719 v 5.951171 H 62.740234 a 0.10001,0.10001 0 0 0 -0.09961,0.09961 v 8.0625 a 0.10001,0.10001 0 0 0 0.09961,0.09961 h 18.15625 v 5.925781 h -18.15625 a 0.10001,0.10001 0 0 0 -0.09961,0.09961 v 9.898437 a 0.10001,0.10001 0 0 0 0.09961,0.09961 h 20.214844 v 5.925781 H 55.498047 Z m 75.576173,0.53125 a 0.10001,0.10001 0 0 0 -0.0996,0.002 l -6.99609,4.066406 a 0.10001,0.10001 0 0 0 -0.0488,0.08789 v 5.132812 h -3.09961 a 0.10001,0.10001 0 0 0 -0.0996,0.09961 v 5.556641 a 0.10001,0.10001 0 0 0 0.0996,0.09961 h 3.09961 v 11.384766 c 0,2.465944 0.0725,4.101689 0.22461,4.929688 0.18355,1.149995 0.5084,2.07348 0.98242,2.767578 a 0.10001,0.10001 0 0 0 0.002,0.002 c 0.49308,0.680097 1.25492,1.234963 2.27539,1.669922 1.02221,0.418937 2.16977,0.628906 3.4375,0.628906 2.06181,0 3.91032,-0.350236 5.54492,-1.050781 a 0.10001,0.10001 0 0 0 0.0606,-0.103516 l -0.5957,-5.40625 a 0.10001,0.10001 0 0 0 -0.13281,-0.08398 c -1.21838,0.444544 -2.14769,0.664062 -2.76954,0.664062 -0.44564,0 -0.81839,-0.109881 -1.13086,-0.328125 -0.2982,-0.219729 -0.48858,-0.487598 -0.58203,-0.8125 -0.0365,-0.162226 -0.0693,-0.568879 -0.0898,-1.193359 -0.0206,-0.626513 -0.0312,-1.476554 -0.0312,-2.550781 V 65.867187 h 4.66211 a 0.10001,0.10001 0 0 0 0.0996,-0.09961 v -5.556641 a 0.10001,0.10001 0 0 0 -0.0996,-0.09961 H 131.125 v -9.201172 a 0.10001,0.10001 0 0 0 -0.0508,-0.08789 z m -0.15039,0.261718 v 9.126953 a 0.10001,0.10001 0 0 0 0.10156,0.09961 h 4.66211 v 5.357422 h -4.66211 a 0.10001,0.10001 0 0 0 -0.10156,0.09961 v 10.617188 c 0,1.075509 0.0105,1.926383 0.0312,2.55664 0.0207,0.630258 0.0496,1.03172 0.0957,1.234375 a 0.10001,0.10001 0 0 0 0.002,0.0059 c 0.10527,0.36843 0.32689,0.679182 0.65625,0.921875 a 0.10001,0.10001 0 0 0 0.002,0.002 c 0.34868,0.244082 0.76836,0.365234 1.24804,0.365234 0.63904,0 1.56306,-0.235854 2.71485,-0.646484 l 0.57422,5.21289 c -1.59036,0.669827 -3.38516,1.011719 -5.39649,1.011719 -1.2451,0 -2.36455,-0.203901 -3.35937,-0.611328 h -0.002 c -0.99607,-0.424818 -1.72367,-0.961071 -2.18945,-1.603516 -0.4511,-0.661286 -0.76907,-1.555507 -0.94922,-2.685547 a 0.10001,0.10001 0 0 0 0,-0.002 c -0.14557,-0.792572 -0.22265,-2.432614 -0.22265,-4.894531 V 65.767578 a 0.10001,0.10001 0 0 0 -0.0996,-0.09961 h -3.09961 v -5.357422 h 3.09961 a 0.10001,0.10001 0 0 0 0.0996,-0.09961 v -5.175781 z m -24.86328,8.431641 c -3.43216,0 -6.295523,1.459933 -8.582034,4.3125 v -3.617188 a 0.10001,0.10001 0 0 0 -0.09961,-0.09961 h -6.474609 a 0.10001,0.10001 0 0 0 -0.09961,0.09961 v 26.34375 a 0.10001,0.10001 0 0 0 0.09961,0.09961 H 97.875 a 0.10001,0.10001 0 0 0 0.09961,-0.09961 v -11.93164 c 0,-2.939554 0.176235,-4.954831 0.515625,-6.021485 0.357382,-1.072144 1.00445,-1.927906 1.947265,-2.578125 0.94297,-0.650325 2.00251,-0.974609 3.19141,-0.974609 0.92619,0 1.70643,0.227511 2.34961,0.677734 0.66027,0.450918 1.13414,1.083852 1.42578,1.910157 0.28527,0.792438 0.4414,2.631877 0.4414,5.472656 v 13.445312 a 0.10001,0.10001 0 0 0 0.0996,0.09961 h 6.97071 a 0.10001,0.10001 0 0 0 0.0996,-0.09961 V 70.183594 c 0,-2.03748 -0.13268,-3.605783 -0.4004,-4.710938 v -0.002 c -0.25113,-1.103881 -0.71098,-2.092049 -1.38085,-2.962891 -0.65779,-0.877042 -1.63281,-1.589838 -2.91797,-2.140625 -1.28692,-0.568247 -2.70579,-0.851562 -4.25586,-0.851562 z m 48.46484,0 c -1.14114,0 -2.1711,0.287052 -3.08008,0.859375 -0.84503,0.542094 -1.79235,1.715624 -2.82226,3.3125 v -3.476563 a 0.10001,0.10001 0 0 0 -0.0996,-0.09961 h -6.47461 a 0.10001,0.10001 0 0 0 -0.0996,0.09961 v 26.34375 a 0.10001,0.10001 0 0 0 0.0996,0.09961 h 6.9707 a 0.10001,0.10001 0 0 0 0.0996,-0.09961 v -8.136718 c 0,-4.477558 0.19323,-7.422615 0.56641,-8.802735 v -0.002 c 0.39365,-1.393225 0.92686,-2.34131 1.57812,-2.849609 0.65974,-0.531012 1.46097,-0.796875 2.41797,-0.796875 0.98359,0 2.05759,0.37143 3.2207,1.125 a 0.10001,0.10001 0 0 0 0.14844,-0.05078 l 2.1582,-6.076172 a 0.10001,0.10001 0 0 0 -0.043,-0.119141 c -1.48533,-0.884518 -3.03473,-1.330078 -4.64063,-1.330078 z m -48.46484,0.201172 c 1.5257,0 2.91608,0.277755 4.17578,0.833984 a 0.10001,0.10001 0 0 0 0.002,0 c 1.26145,0.54062 2.20387,1.233426 2.83594,2.076172 a 0.10001,0.10001 0 0 0 0,0.002 c 0.65267,0.848478 1.10261,1.810464 1.34766,2.888672 0.26123,1.077582 0.39257,2.63637 0.39257,4.666016 v 16.269531 h -6.76953 v -13.34375 c 0,-2.847756 -0.14114,-4.677857 -0.45117,-5.539063 -0.30349,-0.859876 -0.80691,-1.532738 -1.50195,-2.007812 -0.67974,-0.475818 -1.50395,-0.712891 -2.46289,-0.712891 -1.22543,0 -2.33139,0.337176 -3.30664,1.009766 -0.975413,0.672696 -1.651267,1.569021 -2.021489,2.679687 a 0.10001,0.10001 0 0 0 0,0.002 c -0.355141,1.116156 -0.52539,3.134612 -0.52539,6.082031 V 86.453125 H 91.003906 V 60.310547 h 6.275391 v 3.769531 a 0.10001,0.10001 0 0 0 0.177734,0.0625 c 2.283607,-2.957186 5.142759,-4.425781 8.603519,-4.425781 z m 48.46484,0 c 1.54286,0 3.02739,0.428093 4.46289,1.267578 l -2.08984,5.882812 c -1.14192,-0.719146 -2.21645,-1.099609 -3.2168,-1.099609 -0.9936,0 -1.84504,0.280226 -2.54102,0.839844 -0.70439,0.549765 -1.2484,1.536354 -1.64843,2.953125 a 0.10001,0.10001 0 0 0 0,0.002 c -0.38734,1.431462 -0.57422,4.371264 -0.57422,8.855469 v 8.035156 h -6.76953 V 60.310547 h 6.27343 v 3.646484 a 0.10001,0.10001 0 0 0 0.18555,0.05273 c 1.10381,-1.762808 2.09308,-2.917788 2.94531,-3.464844 0.87695,-0.552155 1.86485,-0.828125 2.97266,-0.828125 z m 6.01367,0.394531 a 0.10001,0.10001 0 0 0 -0.0937,0.134766 l 10.00781,26.380859 c -0.41012,1.447448 -0.99472,2.635515 -1.75585,3.558594 a 0.10001,0.10001 0 0 0 0,0.002 c -0.75581,0.9327 -1.91869,1.400391 -3.51954,1.400391 -0.86825,0 -1.84521,-0.10632 -2.93164,-0.320313 A 0.10001,0.10001 0 0 0 162.127,91.377 l 0.61914,5.457031 a 0.10001,0.10001 0 0 0 0.0781,0.08789 c 1.29688,0.282653 2.61839,0.423828 3.96484,0.423828 1.33,0 2.52214,-0.141888 3.57422,-0.425781 1.0666,-0.283316 1.9608,-0.684423 2.68359,-1.205078 l 0.002,-0.002 c 0.73726,-0.503127 1.38258,-1.164842 1.93359,-1.982422 l 0.002,-0.002 c 0.5691,-0.820604 1.15839,-1.999977 1.77149,-3.541016 a 0.10001,0.10001 0 0 0 0,-0.002 l 1.66211,-4.589844 9.30078,-25.349609 a 0.10001,0.10001 0 0 0 -0.0937,-0.134766 h -7.2168 a 0.10001,0.10001 0 0 0 -0.0957,0.06836 l -6.05859,18.416016 -6.20313,-18.416016 a 0.10001,0.10001 0 0 0 -0.0957,-0.06836 z m 0.14453,0.199219 h 7.20118 l 6.27734,18.634765 a 0.10001,0.10001 0 0 0 0.18945,0 l 6.12891,-18.634765 h 7.00195 l -9.25195,25.216797 -1.66211,4.589843 v -0.0039 c -0.61019,1.533718 -1.19497,2.702054 -1.75,3.501953 a 0.10001,0.10001 0 0 0 0,0.002 c -0.53949,0.801049 -1.16654,1.445222 -1.88281,1.933594 a 0.10001,0.10001 0 0 0 -0.004,0 c -0.69901,0.503938 -1.57197,0.897108 -2.62109,1.175781 -1.03152,0.278347 -2.20566,0.417969 -3.52149,0.417969 -1.30921,0 -2.59224,-0.142192 -3.85351,-0.412109 l -0.59766,-5.253906 c 1.03917,0.19739 1.99418,0.310546 2.83984,0.310546 1.6403,1e-6 2.87522,-0.491035 3.67383,-1.476562 0.78743,-0.95539 1.38855,-2.174787 1.80469,-3.65625 a 0.10001,0.10001 0 0 0 -0.002,-0.0625 z"
         id="path6" />
    </g>
  </g>
</svg>
